<svg xmlns="http://www.w3.org/2000/svg" xmlns:xlink="http://www.w3.org/1999/xlink"><symbol style="margin:auto;background:0 0;display:block;shape-rendering:auto" preserveAspectRatio="xMidYMid" id="loading-spinner" viewBox="0 0 100 100"><circle cx="50" cy="50" r="32" stroke-width="8" stroke="#bd2f00" stroke-dasharray="50.26548245743669 50.26548245743669" fill="none" stroke-linecap="round"><animateTransform attributeName="transform" type="rotate" repeatCount="indefinite" dur="1s" keyTimes="0;1" values="0 50 50;360 50 50"/></circle></symbol><use style="margin:auto;background:0 0;display:block;shape-rendering:auto" xlink:href="#loading-spinner" width="200" height="200"/><view preserveAspectRatio="xMidYMid" id="loading-spinner-view" viewBox="0 0 200 200"/><symbol id="map_marker" viewBox="0 0 24 24"><g fill="none" fill-rule="evenodd"><path d="M0 0h24v24H0z"/><path d="M11.967 1.5c2.06 0 4.12.778 5.69 2.334 3.143 3.111 2.93 7.96 0 11.268l-.622.709c-2.612 2.991-4.066 4.96-5.068 6.937-1.073-2.13-2.682-4.249-5.689-7.646-2.93-3.308-3.143-8.157 0-11.268A8.06 8.06 0 0 1 11.967 1.5zm.032 2a6.072 6.072 0 0 0-4.3 1.762A5.606 5.606 0 0 0 6.002 9.41c.02 1.573.648 3.134 1.766 4.398l.66.752c1.59 1.823 2.717 3.239 3.573 4.503.975-1.437 2.292-3.063 4.233-5.255C17.352 12.544 17.98 10.983 18 9.41a5.616 5.616 0 0 0-1.698-4.15 6.077 6.077 0 0 0-4.303-1.76zM12 6a3.5 3.5 0 1 1 0 6.999A3.5 3.5 0 0 1 12 6zm0 2c-.827 0-1.5.673-1.5 1.5S11.173 11 12 11s1.5-.673 1.5-1.5S12.827 8 12 8z" fill="#bd2f00"/></g></symbol><use xlink:href="#map_marker" y="200" width="24" height="24"/><view id="map_marker-view" viewBox="0 200 24 24"/><symbol id="test" viewBox="0 0 100 100"><path d="M50 10c22.1 0 40 17.9 40 40S72.1 90 50 90 10 72.1 10 50s17.9-40 40-40m0-10C22.4 0 0 22.4 0 50s22.4 50 50 50 50-22.4 50-50S77.6 0 50 0z"/><path d="M63.1 72.9c-.7.6-1.8 1.3-3.4 2.1-1.6.8-3.6 1.2-5.8 1.2-3.3 0-6-.9-8-2.7-2-1.8-3-4.7-3-8.8V45.5h-6.1v-8.1H43v-7.7l10.6-5.9v13.6h8.6v8.1h-8.6v18.3c0 1.5.2 2.5.7 3.1.5.6 1.1.9 2 .9.8 0 1.4-.3 1.9-.8.5-.6.8-1.1 1.1-1.6l3.8 7.5z"/></symbol><use xlink:href="#test" y="224" width="100" height="100"/><view id="test-view" viewBox="0 224 100 100"/></svg>